<svg xmlns="http://www.w3.org/2000/svg" viewBox="0 0 322.23 274.21"><defs><style>.cls-1{fill:#0095da;}.cls-2{fill:none;stroke:#00994e;stroke-miterlimit:10;stroke-width:6px;}</style></defs><g id="Layer_2" data-name="Layer 2"><g id="Layer_1-2" data-name="Layer 1"><path class="cls-1" d="M27.67,196.92l77.66,42.52c2.26.28,4.54.49,6.84.65L23.41,191.48C24.78,193.33,26.2,195.15,27.67,196.92Z"/><path class="cls-1" d="M14.33,177.21,129.06,240c1.62-.12,3.24-.28,4.84-.46L12.11,172.9C12.83,174.35,13.56,175.79,14.33,177.21Z"/><path class="cls-1" d="M6.11,158.28l143.36,78.49c1.27-.31,2.55-.65,3.81-1L4.93,154.53C5.31,155.78,5.7,157,6.11,158.28Z"/><path class="cls-1" d="M2,142.52l163,89.23c1.08-.43,2.15-.88,3.21-1.34L1.41,139.08C1.59,140.23,1.8,141.38,2,142.52Z"/><path class="cls-1" d="M.19,128.31l177.75,97.33c.94-.52,1.86-1,2.78-1.58L0,125.11C.06,126.18.12,127.24.19,128.31Z"/><path class="cls-1" d="M0,115.5,188.82,218.89c.83-.57,1.65-1.16,2.46-1.76L.15,112.48C.09,113.48,0,114.49,0,115.5Z"/><path class="cls-1" d="M1.29,101.77,199.67,210.4l2.14-1.93L1.76,98.92C1.59,99.87,1.43,100.82,1.29,101.77Z"/><path class="cls-1" d="M3.54,90.6,207.85,202.48c.64-.68,1.28-1.37,1.9-2.06L4.26,87.89C4,88.79,3.77,89.69,3.54,90.6Z"/><path class="cls-1" d="M7.08,79,215.7,193.26c.56-.73,1.11-1.46,1.65-2.2L8.05,76.45C7.72,77.31,7.4,78.16,7.08,79Z"/><path class="cls-1" d="M11.28,68.92,222,184.29c.49-.77,1-1.54,1.44-2.32L12.47,66.47C12.07,67.28,11.67,68.1,11.28,68.92Z"/><path class="cls-1" d="M16.35,59.3l211,115.55c.42-.81.82-1.62,1.22-2.44L17.76,57C17.28,57.74,16.81,58.51,16.35,59.3Z"/><path class="cls-1" d="M23.34,48.69l209.2,114.56q.5-1.29,1-2.58L25,46.5C24.44,47.22,23.89,48,23.34,48.69Z"/><path class="cls-1" d="M31,39.36,236.3,151.79c.25-.9.48-1.81.71-2.72L32.88,37.3C32.24,38,31.6,38.66,31,39.36Z"/><path class="cls-1" d="M39,31.32l199.8,109.41c.17-.94.32-1.89.46-2.85L41.11,29.4C40.38,30,39.67,30.67,39,31.32Z"/><path class="cls-1" d="M52.9,20.31c-.84.57-1.67,1.15-2.49,1.73l190,104c.05-1,.09-2,.11-3Z"/><path class="cls-1" d="M240.06,109.28l-175.33-96c-1,.5-1.92,1-2.86,1.54L240.3,112.52Q240.2,110.89,240.06,109.28Z"/><path class="cls-1" d="M238.34,97.05,76,8.13c-1.08.43-2.15.88-3.22,1.34l166.22,91C238.76,99.33,238.56,98.19,238.34,97.05Z"/><path class="cls-1" d="M234.14,81.24,91.57,3.17c-1.28.31-2.56.64-3.83,1L235.35,85C235,83.74,234.57,82.48,234.14,81.24Z"/><path class="cls-1" d="M225.75,62.2,112.15,0c-1.64.11-3.27.25-4.9.42L228,66.55Q226.93,64.35,225.75,62.2Z"/><path class="cls-1" d="M212,42.3,136.24.79c-2.32-.31-4.65-.56-7-.73l87.22,47.76Q214.33,45,212,42.3Z"/><path class="cls-2" d="M216.06,271.21A103.17,103.17,0,1,1,319.23,168,103.28,103.28,0,0,1,216.06,271.21Zm0-202.93A99.77,99.77,0,1,0,315.83,168,99.87,99.87,0,0,0,216.06,68.28Z"/></g></g></svg>