<svg xmlns="http://www.w3.org/2000/svg" viewBox="0 0 428.69 455.86"><defs><style>.cls-1{fill:#002656;}.cls-2{fill:gold;}.cls-3{fill:none;stroke:#ca5d2d;stroke-miterlimit:10;stroke-width:5px;}</style></defs><g id="Layer_2" data-name="Layer 2"><g id="Layer_1-2" data-name="Layer 1"><path class="cls-1" d="M95.44,179.56l70.81,38.78q3.09.38,6.24.58L91.55,174.6C92.8,176.29,94.09,178,95.44,179.56Z"/><path class="cls-1" d="M83.28,161.59l104.61,57.29q2.22-.16,4.41-.42l-111-60.8C81.9,159,82.57,160.3,83.28,161.59Z"/><path class="cls-1" d="M75.78,144.33,206.5,215.9c1.16-.29,2.32-.59,3.48-.92L74.7,140.9C75,142.05,75.4,143.19,75.78,144.33Z"/><path class="cls-1" d="M72,130l148.6,81.38c1-.4,2-.81,2.93-1.23L71.49,126.82C71.66,127.87,71.84,128.92,72,130Z"/><path class="cls-1" d="M70.38,117l162.08,88.75c.85-.47,1.7-.95,2.54-1.44L70.22,114.08C70.26,115.05,70.32,116,70.38,117Z"/><path class="cls-1" d="M70.21,105.32,242.38,199.6c.76-.53,1.51-1.06,2.25-1.6L70.34,102.56C70.29,103.48,70.24,104.4,70.21,105.32Z"/><path class="cls-1" d="M71.38,92.8l180.89,99.05c.66-.58,1.31-1.17,2-1.76L71.81,90.2C71.65,91.06,71.51,91.93,71.38,92.8Z"/><path class="cls-1" d="M73.43,82.61l186.31,102c.58-.62,1.16-1.25,1.73-1.88L74.09,80.14C73.86,81,73.64,81.79,73.43,82.61Z"/><path class="cls-1" d="M76.66,72.06,266.89,176.22c.51-.66,1-1.33,1.51-2L77.55,69.71C77.24,70.49,77,71.27,76.66,72.06Z"/><path class="cls-1" d="M80.5,62.85,272.61,168c.44-.7.87-1.4,1.3-2.11L81.58,60.61C81.21,61.35,80.85,62.1,80.5,62.85Z"/><path class="cls-1" d="M85.12,54.07,277.53,159.44c.38-.74.74-1.48,1.1-2.23L86.4,51.94C86,52.65,85.54,53.36,85.12,54.07Z"/><path class="cls-1" d="M91.49,44.4,282.25,148.86c.3-.78.59-1.57.88-2.35L93,42.4C92.49,43.06,92,43.73,91.49,44.4Z"/><path class="cls-1" d="M98.45,35.89,285.68,138.41c.22-.82.44-1.65.64-2.48L100.19,34C99.6,34.63,99,35.25,98.45,35.89Z"/><path class="cls-1" d="M105.73,28.56l182.19,99.77c.15-.86.29-1.73.42-2.6L107.69,26.81C107,27.38,106.37,28,105.73,28.56Z"/><path class="cls-1" d="M118.44,18.52c-.76.52-1.52,1-2.27,1.58L289.41,115c0-.92.08-1.84.1-2.77Z"/><path class="cls-1" d="M289.1,99.65,129.23,12.1c-.88.46-1.75.92-2.61,1.4l162.71,89.1C289.26,101.61,289.19,100.63,289.1,99.65Z"/><path class="cls-1" d="M287.54,88.49,139.46,7.42c-1,.39-2,.8-2.94,1.21l151.58,83C287.92,90.58,287.74,89.53,287.54,88.49Z"/><path class="cls-1" d="M283.71,74.07l-130-71.18c-1.18.28-2.34.59-3.5.91l134.6,73.71C284.46,76.36,284.1,75.21,283.71,74.07Z"/><path class="cls-1" d="M276.05,56.72,172.47,0c-1.5.1-3,.23-4.46.38l110.11,60.3Q277.13,58.67,276.05,56.72Z"/><path class="cls-1" d="M263.56,38.57,194.44.72c-2.11-.28-4.24-.51-6.39-.67l79.54,43.56Q265.64,41,263.56,38.57Z"/><circle class="cls-2" cx="238.29" cy="265.46" r="190.4"/><circle class="cls-3" cx="84.84" cy="159.63" r="82.34"/></g></g></svg>