<svg xmlns="http://www.w3.org/2000/svg" viewBox="0 0 351.2 344.13"><defs><style>.cls-1{fill:none;stroke:#00994e;stroke-miterlimit:10;stroke-width:6px;}.cls-2{fill:gold;}.cls-3{fill:#0095da;}</style></defs><g id="Layer_2" data-name="Layer 2"><g id="Layer_1-2" data-name="Layer 1"><path class="cls-1" d="M205.84,163.09A77.44,77.44,0,1,1,228.6,270.22,77.52,77.52,0,0,1,205.84,163.09Zm127.74,83a74.88,74.88,0,1,0-103.59,22A75,75,0,0,0,333.58,246.06Z"/><circle class="cls-2" cx="142.91" cy="201.22" r="142.88"/><path class="cls-3" d="M223.11.55l-70.51,38c-1.32,1.57-2.6,3.2-3.85,4.86L229.33,0C227.26.13,225.18.31,223.11.55Z"/><path class="cls-3" d="M244.63.15,140.47,56.21c-.71,1.29-1.39,2.59-2,3.89L249,.59C247.54.41,246.08.26,244.63.15Z"/><path class="cls-3" d="M263,3.24,132.89,73.29q-.58,1.69-1.11,3.39L266.46,4.19C265.32,3.85,264.18,3.53,263,3.24Z"/><path class="cls-3" d="M277,7.89,129.06,87.53c-.21,1-.39,2.07-.57,3.1L279.91,9.13C279,8.7,278,8.29,277,7.89Z"/><path class="cls-3" d="M288.68,13.51,127.31,100.37c-.07,1-.13,1.93-.17,2.89L291.19,15C290.36,14.46,289.52,14,288.68,13.51Z"/><path class="cls-3" d="M298.49,19.67,127.07,112q0,1.36.12,2.73l173.52-93.4C300,20.74,299.24,20.2,298.49,19.67Z"/><path class="cls-3" d="M308.27,27.41l-180.1,97c.12.86.26,1.72.41,2.57L310.2,29.17C309.56,28.58,308.92,28,308.27,27.41Z"/><path class="cls-3" d="M315.63,34.62,130.14,134.47c.2.82.41,1.64.63,2.45L317.33,36.5C316.77,35.87,316.21,35.25,315.63,34.62Z"/><path class="cls-3" d="M322.66,43,133.27,145c.27.78.56,1.56.85,2.33L324.14,45C323.65,44.34,323.16,43.67,322.66,43Z"/><path class="cls-3" d="M328.26,51.18,137,154.13c.35.75.7,1.49,1.06,2.23L329.53,53.28C329.11,52.58,328.69,51.88,328.26,51.18Z"/><path class="cls-3" d="M333.06,59.76,141.48,162.87c.41.72.83,1.42,1.26,2.13L334.14,62C333.79,61.23,333.43,60.49,333.06,59.76Z"/><path class="cls-3" d="M337.66,70.29,147.73,172.52l1.48,2L338.5,72.62C338.23,71.84,338,71.06,337.66,70.29Z"/><path class="cls-3" d="M341,80.67,154.57,181c.56.63,1.13,1.25,1.71,1.87L341.6,83.13C341.4,82.31,341.2,81.49,341,80.67Z"/><path class="cls-3" d="M343.14,90.68l-181.4,97.64c.64.59,1.28,1.18,1.94,1.76L343.54,93.26C343.42,92.4,343.28,91.54,343.14,90.68Z"/><path class="cls-3" d="M344.62,106.69c0-.92,0-1.84-.08-2.75L172.05,196.78c.75.53,1.5,1.06,2.26,1.58Z"/><path class="cls-3" d="M185,204.8l159.18-85.68c.09-1,.17-2,.24-2.92l-162,87.19Q183.67,204.11,185,204.8Z"/><path class="cls-3" d="M195.08,209.52,342.5,130.17c.21-1,.4-2.07.58-3.11L192.17,208.29Q193.63,208.94,195.08,209.52Z"/><path class="cls-3" d="M209.14,214.13l129.44-69.67c.39-1.13.77-2.27,1.13-3.41l-134,72.14C206.84,213.52,208,213.84,209.14,214.13Z"/><path class="cls-3" d="M227.71,217.13l103.13-55.51c.73-1.3,1.43-2.6,2.09-3.92l-109.63,59C224.77,216.88,226.24,217,227.71,217.13Z"/><path class="cls-3" d="M249.56,216.55l68.82-37.05c1.37-1.6,2.71-3.25,4-4.95l-79.19,42.63Q246.39,217,249.56,216.55Z"/></g></g></svg>