<svg xmlns="http://www.w3.org/2000/svg" viewBox="0 0 295.84 295.32"><defs><style>.cls-1{fill:gold;}</style></defs><g id="Layer_2" data-name="Layer 2"><g id="Layer_1-2" data-name="Layer 1"><path class="cls-1" d="M34,242.22l95.54,52.31q4.17.53,8.41.79L28.79,235.54C30.48,237.81,32.22,240,34,242.22Z"/><path class="cls-1" d="M17.63,218l141.13,77.27q3-.21,6-.56l-149.81-82C15.78,214.47,16.68,216.24,17.63,218Z"/><path class="cls-1" d="M7.52,194.69l176.33,96.56c1.58-.39,3.14-.8,4.7-1.25L6.06,190.08C6.53,191.63,7,193.17,7.52,194.69Z"/><path class="cls-1" d="M2.47,175.31,202.94,285.07c1.32-.53,2.64-1.08,3.95-1.65L1.74,171.08C2,172.5,2.21,173.9,2.47,175.31Z"/><path class="cls-1" d="M.24,157.83,218.88,277.55c1.15-.63,2.29-1.28,3.42-1.94L0,153.89C.08,155.21.15,156.52.24,157.83Z"/><path class="cls-1" d="M0,142.07,232.26,269.25q1.53-1,3-2.16L.18,138.35Q.08,140.21,0,142.07Z"/><path class="cls-1" d="M1.58,125.18l244,133.62q1.34-1.17,2.64-2.37L2.16,121.68C2,122.84,1.76,124,1.58,125.18Z"/><path class="cls-1" d="M4.36,111.45,255.68,249.06c.78-.83,1.56-1.68,2.33-2.53L5.24,108.11C4.93,109.22,4.64,110.33,4.36,111.45Z"/><path class="cls-1" d="M8.71,97.21,265.32,237.72c.69-.89,1.37-1.79,2-2.71L9.9,94C9.5,95.09,9.1,96.15,8.71,97.21Z"/><path class="cls-1" d="M13.88,84.78,273,226.69c.6-.95,1.19-1.9,1.77-2.86L15.34,81.76C14.84,82.76,14.36,83.77,13.88,84.78Z"/><path class="cls-1" d="M20.11,72.94,279.67,215.08c.51-1,1-2,1.5-3L21.84,70.07C21.25,71,20.68,72,20.11,72.94Z"/><path class="cls-1" d="M28.71,59.9,286.05,200.8c.4-1.05.8-2.1,1.18-3.17L30.75,57.2Q29.71,58.54,28.71,59.9Z"/><path class="cls-1" d="M38.1,48.41l252.57,138.3c.3-1.11.59-2.22.87-3.34L40.45,45.88C39.66,46.71,38.87,47.56,38.1,48.41Z"/><path class="cls-1" d="M47.92,38.53,293.7,173.11c.2-1.16.39-2.33.56-3.51L50.57,36.16C49.67,36.94,48.79,37.73,47.92,38.53Z"/><path class="cls-1" d="M65.07,25c-1,.7-2,1.41-3.07,2.14l233.7,128c.06-1.25.11-2.5.14-3.75Z"/><path class="cls-1" d="M295.29,134.42,79.62,16.32c-1.18.62-2.35,1.25-3.52,1.89L295.59,138.4C295.51,137.07,295.41,135.74,295.29,134.42Z"/><path class="cls-1" d="M293.17,119.38,93.43,10c-1.33.53-2.65,1.08-4,1.65l204.47,112C293.7,122.19,293.44,120.78,293.17,119.38Z"/><path class="cls-1" d="M288,99.92l-175.37-96c-1.58.39-3.16.8-4.72,1.24L289.5,104.56C289,103,288.54,101.46,288,99.92Z"/><path class="cls-1" d="M277.68,76.51,138,0q-3,.2-6,.52L280.47,81.86Q279.14,79.15,277.68,76.51Z"/><path class="cls-1" d="M260.83,52,167.59,1Q163.32.4,159,.07L266.26,58.82C264.52,56.5,262.7,54.24,260.83,52Z"/></g></g></svg>