<?xml version="1.0" encoding="UTF-8"?>
<svg width="43px" height="43px" viewBox="0 0 43 43" version="1.1" xmlns="http://www.w3.org/2000/svg" xmlns:xlink="http://www.w3.org/1999/xlink">
    <title>icons/fontawesome/regular/check</title>
    <g id="SPRINT-2-DESKTOP" stroke="none" stroke-width="1" fill="none" fill-rule="evenodd">
        <g id="DESKTOP-/-05-REWARDS---Hifi" transform="translate(-224.000000, -2369.000000)" fill="#FFFFFF">
            <g id="Spend-More,-Earn-More" transform="translate(100.000000, 1934.000000)">
                <g id="icons/fontawesome/regular/check" transform="translate(104.000000, 415.000000)">
                    <path d="M60.7261721,29.4390624 L54.6203224,23.3445604 C53.86084,22.5883201 52.6369142,22.5875096 51.8750001,23.3437498 C51.1124376,24.102827 51.1109786,25.3368846 51.8718228,26.0979881 L54.468815,28.6836327 L54.468815,33.7187499 C54.468815,35.9980078 56.1612369,37.8728027 58.35944,38.1970215 L58.35944,51.2265626 C58.35944,52.3005372 57.4881021,53.1718751 56.4141275,53.1718751 C55.3401529,53.1718751 54.468815,52.3005372 54.468815,51.2265626 L54.468815,48.6328126 C54.468815,44.6935547 51.2752603,41.5 47.3360024,41.5 L46.7605141,41.5 L46.7605141,25.9374998 C46.7605141,23.0722166 44.4382973,20.7499998 41.5730141,20.7499998 L28.5312499,20.7499998 C25.6659666,20.7499998 23.3437498,23.0722166 23.3437498,25.9374998 L23.3437498,58.3593752 L22.6223631,58.3593752 C21.6253904,58.3593752 20.7499998,59.2347658 20.7499998,60.2317385 C20.7499998,61.2287111 21.6253904,62.2499998 22.6223631,62.2499998 L47.2629883,62.2499998 C48.4058594,62.2499998 49.2812501,61.3746096 49.2812501,60.3046877 C49.2812501,59.2347658 48.4058594,58.3593752 47.3359376,58.3593752 L46.6875001,58.3593752 L46.6875082,45.390625 L47.3359457,45.390625 C49.1264437,45.390625 50.5781332,46.8423145 50.5781332,48.6328126 L50.5781332,50.8820802 C50.5781332,53.9418947 52.7666098,56.7180177 55.8061606,57.0422365 C59.2915122,57.3867189 62.2499998,54.6511232 62.2499998,51.2265626 L62.2499998,33.1189452 C62.2499998,31.7410155 61.7069338,30.4198241 60.7261721,29.4390624 Z M42.796875,58.3593752 L27.2343749,58.3593752 L27.2343749,40.203125 L42.796875,40.203125 L42.796875,58.3593752 Z M42.796875,36.3124999 L27.2343749,36.3124999 L27.2343749,25.9374998 C27.2343749,25.2212196 27.8149696,24.6406248 28.5312499,24.6406248 L41.5,24.6406248 C42.2162803,24.6406248 42.796875,25.2212196 42.796875,25.9374998 L42.796875,36.3124999 Z" id="icons/fontawesome/regular/gas-pump"></path>
                </g>
            </g>
        </g>
    </g>
</svg>