<?xml version="1.0" encoding="UTF-8"?><svg xmlns="http://www.w3.org/2000/svg" viewBox="0 0 36.01 35.94"><defs><style>.d{fill:#fff;}.e{fill:#92ae44;}.f{opacity:.15;}</style></defs><g id="a"/><g id="b"><g id="c"><g><rect class="e" width="35.95" height="35.94"/><g class="f"><path class="d" d="M14.06,4.4c.06-.06,.1-.15,.1-.23,0-.09-.03-.17-.09-.24l-.46-.48c-.13-.13-.34-.14-.47,0L0,16.12v1.85L14.06,4.4Z"/><path class="d" d="M32.13,22.14c0-.09-.03-.17-.09-.24l-.46-.48c-.13-.13-.34-.14-.47,0l-14.49,13.98H1.61c-.18,0-.33,.15-.33,.33v.21H17.97l14.06-13.57c.06-.06,.1-.15,.1-.23Z"/><path class="d" d="M14.16,22.14c0-.09-.03-.17-.09-.24l-.46-.48c-.13-.13-.34-.14-.47,0L0,34.09v1.85l14.06-13.57c.06-.06,.1-.15,.1-.23Z"/><path class="d" d="M32.13,4.17c0-.09-.03-.17-.09-.24l-.46-.48c-.13-.13-.34-.14-.47,0l-14.49,13.98H1.61c-.18,0-.33,.15-.33,.33v.67c0,.18,.15,.33,.33,.33h14.61v13.5c0,.18,.15,.33,.33,.33h.67c.18,0,.33-.15,.33-.33v-13.88l14.48-13.97c.06-.06,.1-.15,.1-.23h0Z"/><path class="d" d="M1.28,.45c0,.18,.15,.33,.33,.33h14.61V14.29c0,.18,.15,.33,.33,.33h.67c.18,0,.33-.15,.33-.33V.4l.42-.4H1.28V.45Z"/><path class="d" d="M19.25,.45c0,.18,.15,.33,.33,.33h14.61V14.29c0,.18,.15,.33,.33,.33h.67c.18,0,.33-.15,.33-.33V.4l.42-.4H19.25V.45Z"/><path class="d" d="M34.59,17.43h-15c-.18,0-.33,.15-.33,.33v.67c0,.18,.15,.33,.33,.33h14.61v13.5c0,.18,.15,.33,.33,.33h.67c.18,0,.33-.15,.33-.33v-13.88l.48-.46v-1.85l-1.41,1.36h-.01Z"/><path class="d" d="M34.59,35.4h-15c-.18,0-.33,.15-.33,.33v.21h16.69l.06-.06v-1.85l-1.41,1.36h-.01Z"/></g></g></g></g></svg>