<svg version="1.1" id="svg-5" xmlns="http://www.w3.org/2000/svg" xmlns:xlink="http://www.w3.org/1999/xlink" x="0px" y="0px"
	 viewBox="0 0 254.7 197.6" style="enable-background:new 0 0 254.7 197.6;" xml:space="preserve">
<style type="text/css">
	#svg-10 .st0{fill:#9BDBC1;}
	#svg-10 .st1{fill:#0095DA;}
</style>
<circle class="posts-slider-c1" class="st0" cx="163" cy="92.9" r="90.1"/>
<g class="posts-slider-c2">
	<path class="st1" d="M8.5,98.3l36.7-33.4c1.2-0.4,2.4-0.9,3.6-1.2l-42,38.1C7.4,100.6,8,99.4,8.5,98.3z"/>
	<path class="st1" d="M3.9,110.8l54.2-49.3c0.9-0.1,1.8-0.3,2.7-0.4L3.2,113.4C3.4,112.5,3.6,111.6,3.9,110.8z"/>
	<path class="st1" d="M1.9,122.2l67.8-61.6c0.7,0,1.5,0,2.2,0.1L1.7,124.4C1.8,123.6,1.8,122.9,1.9,122.2z"/>
	<path class="st1" d="M1.7,131.3l77.1-70c0.6,0.1,1.3,0.2,1.9,0.3L1.8,133.2C1.8,132.6,1.8,131.9,1.7,131.3z"/>
	<path class="st1" d="M2.6,139.3l84-76.4c0.6,0.2,1.2,0.3,1.7,0.5L2.9,141C2.8,140.5,2.7,139.9,2.6,139.3z"/>
	<path class="st1" d="M4.2,146.3l89.3-81.2c0.5,0.2,1.1,0.4,1.6,0.6L4.7,147.9C4.5,147.4,4.3,146.8,4.2,146.3z"/>
	<path class="st1" d="M6.7,153.6l93.8-85.3c0.5,0.3,1,0.5,1.4,0.8l-94.6,86C7.1,154.6,6.9,154.1,6.7,153.6z"/>
	<path class="st1" d="M9.4,159.4L106,71.6c0.4,0.3,0.9,0.6,1.3,0.9l-97.2,88.3C9.9,160.3,9.6,159.8,9.4,159.4z"/>
	<path class="st1" d="M12.8,165.2l98.6-89.7c0.4,0.3,0.8,0.7,1.2,1l-99,90C13.4,166.1,13.1,165.6,12.8,165.2z"/>
	<path class="st1" d="M16.4,170.2l99.6-90.5c0.4,0.4,0.7,0.7,1.1,1.1l-99.7,90.7C17.1,171,16.8,170.6,16.4,170.2z"/>
	<path class="st1" d="M20.5,174.7l99.8-90.7c0.3,0.4,0.7,0.8,1,1.2l-99.7,90.6C21.2,175.5,20.8,175.1,20.5,174.7z"/>
	<path class="st1" d="M25.7,179.6l98.9-89.9c0.3,0.4,0.6,0.8,0.9,1.3l-98.6,89.6C26.5,180.3,26.1,179.9,25.7,179.6z"/>
	<path class="st1" d="M31.1,183.7l97.1-88.2c0.3,0.5,0.5,0.9,0.7,1.4l-96.5,87.7C31.9,184.3,31.5,184,31.1,183.7z"/>
	<path class="st1" d="M36.5,187l94.5-85.9c0.2,0.5,0.4,1,0.6,1.5l-93.7,85.1C37.4,187.5,36.9,187.3,36.5,187z"/>
	<path class="st1" d="M45.5,191.2c-0.5-0.2-1.1-0.4-1.6-0.6l89.8-81.7c0.2,0.5,0.3,1.1,0.5,1.6L45.5,191.2z"/>
	<path class="st1" d="M135.8,118.1l-82.9,75.4c-0.6-0.1-1.2-0.3-1.8-0.5l84.4-76.7C135.6,116.9,135.7,117.5,135.8,118.1z"/>
	<path class="st1" d="M136.4,125l-76.8,69.8c-0.6-0.1-1.3-0.2-1.9-0.3l78.6-71.4C136.4,123.7,136.4,124.3,136.4,125z"/>
	<path class="st1" d="M136.2,134.2l-67.4,61.3c-0.7,0-1.5,0-2.2,0l69.8-63.4C136.4,132.7,136.3,133.4,136.2,134.2z"/>
	<path class="st1" d="M134.2,145.6l-53.7,48.8c-0.9,0.2-1.8,0.3-2.7,0.4l57.1-51.9C134.6,143.9,134.4,144.8,134.2,145.6z"/>
	<path class="st1" d="M129.3,158.3l-35.8,32.6c-1.2,0.5-2.5,0.9-3.7,1.3l41.2-37.5C130.5,155.9,129.9,157.1,129.3,158.3z"/>
</g>
</svg>
