<?xml version="1.0" encoding="UTF-8"?>
<svg width="29px" height="43px" viewBox="0 0 29 43" version="1.1" xmlns="http://www.w3.org/2000/svg" xmlns:xlink="http://www.w3.org/1999/xlink">
    <title>icons/fontawesome/regular/check</title>
    <g id="SPRINT-2-DESKTOP" stroke="none" stroke-width="1" fill="none" fill-rule="evenodd">
        <g id="DESKTOP-/-05-REWARDS---Hifi" transform="translate(-946.000000, -2369.000000)" fill="#FFFFFF">
            <g id="icons/fontawesome/regular/check" transform="translate(919.000000, 2349.000000)">
                <path d="M45.390625,53.1718751 L37.609375,53.1718751 C36.8960937,53.1718751 36.3124999,53.7554689 36.3124999,54.4687501 C36.3124999,55.1820314 36.8931757,55.7656251 37.609375,55.7656251 L45.390625,55.7656251 C46.1069864,55.7656251 46.6875001,55.1849494 46.6875001,54.4687501 C46.6875001,53.7525509 46.1039063,53.1718751 45.390625,53.1718751 Z M50.5781251,20.7499998 L32.4218749,20.7499998 C29.5565917,20.7499998 27.2343749,23.0722166 27.2343749,25.9374998 L27.2343749,57.0625002 C27.2343749,59.9277834 29.5565917,62.2499998 32.4218749,62.2499998 L50.5781251,62.2499998 C53.4434083,62.2499998 55.7656251,59.9277834 55.7656251,57.0625002 L55.7656251,25.9374998 C55.7656251,23.0722166 53.4393556,20.7499998 50.5781251,20.7499998 Z M51.8750001,57.0625002 C51.8750001,57.7775646 51.2931896,58.3593752 50.5781251,58.3593752 L32.4218749,58.3593752 C31.7069726,58.3593752 31.1249999,57.7757814 31.1249999,57.0625002 L31.1249999,25.9374998 C31.1249999,25.2224354 31.7068104,24.6406248 32.4218749,24.6406248 L36.3124999,24.6406248 L36.3124999,27.2343749 C36.3124999,27.9508983 36.8960937,28.5312499 37.609375,28.5312499 L45.390625,28.5312499 C46.1039063,28.5312499 46.6875001,27.9508983 46.6875001,27.2343749 L46.6875001,24.6406248 L50.5781251,24.6406248 C51.2914063,24.6406248 51.8750001,25.2225975 51.8750001,25.9374998 L51.8750001,57.0625002 Z" id="icons/fontawesome/regular/mobile-notch"></path>
            </g>
        </g>
    </g>
</svg>