<?xml version="1.0" encoding="UTF-8"?>
<svg width="42px" height="33px" viewBox="0 0 42 33" version="1.1" xmlns="http://www.w3.org/2000/svg" xmlns:xlink="http://www.w3.org/1999/xlink">
    <title>icons/fontawesome/regular/check</title>
    <g id="SPRINT-2-DESKTOP" stroke="none" stroke-width="1" fill="none" fill-rule="evenodd">
        <g id="DESKTOP-/-05-REWARDS---Hifi" transform="translate(-700.000000, -2374.000000)" fill="#FFFFFF">
            <g id="icons/fontawesome/regular/check" transform="translate(679.411215, 2349.000000)">
                <path d="M59.6562502,46.6875001 L23.3437498,46.6875001 C21.9155662,46.6875001 20.7499998,47.8530665 20.7499998,49.2812501 L20.7499998,54.4687501 C20.7499998,55.8969337 21.9155662,57.0625002 23.3437498,57.0625002 L59.6562502,57.0625002 C61.0844338,57.0625002 62.2499998,55.8969337 62.2499998,54.4687501 L62.2499998,49.2812501 C62.2499998,47.8546876 61.0828127,46.6875001 59.6562502,46.6875001 Z M58.3593752,53.1718751 L24.6406248,53.1718751 L24.6406248,50.5781251 L58.3593752,50.5781251 L58.3593752,53.1718751 Z M59.6562502,25.9374998 L23.3437498,25.9374998 C21.9155662,25.9374998 20.7499998,27.1030663 20.7499998,28.5312499 L20.7499998,33.7187499 C20.7499998,35.1469335 21.9155662,36.3124999 23.3437498,36.3124999 L59.6562502,36.3124999 C61.0844338,36.3124999 62.2499998,35.1469335 62.2499998,33.7187499 L62.2499998,28.5312499 C62.2499998,27.1030663 61.0828127,25.9374998 59.6562502,25.9374998 Z M58.3593752,32.4218749 L24.6406248,32.4218749 L24.6406248,29.8281249 L58.3593752,29.8281249 L58.3593752,32.4218749 Z M61.0828127,40.7948242 C59.7210939,40.6489258 58.910547,40.2436523 57.9378908,39.7573242 C56.8939064,39.2304687 52.1319435,36.6059179 45.8364258,39.7573242 C41.560791,41.8955469 38.5212402,40.4260254 37.1959961,39.7573242 C36.1625488,39.2406006 31.4208495,36.5856542 25.0783201,39.7573242 C24.1056639,40.2436523 23.295117,40.6489258 21.9171873,40.7907715 C21.2565916,40.859668 20.7499998,41.4189453 20.7499998,42.0754883 L20.7499998,43.3820899 C20.7499998,44.1521094 21.4389646,44.750293 22.136035,44.6789649 C24.3569334,44.4666016 25.6440819,43.834375 26.8088377,43.2426758 C31.0950097,41.1044531 34.1345605,42.5841065 35.4654785,43.2426758 C41.7577539,46.3940821 46.5294434,43.7695313 47.5831544,43.2426758 C52.1124903,40.9731445 55.3141505,42.796875 56.1992677,43.2426758 C57.3648341,43.8303223 58.6617092,44.4682227 60.7893947,44.6813965 C61.5610354,44.750293 62.2499998,44.1666992 62.2499998,43.3885742 L62.2499998,42.0754883 C62.2499998,41.4189453 61.7474611,40.859668 61.0828127,40.7948242 Z" id="icons/fontawesome/regular/sandwich"></path>
            </g>
        </g>
    </g>
</svg>