<?xml version="1.0" encoding="UTF-8"?>
<svg width="441px" height="194px" viewBox="0 0 441 194" version="1.1" xmlns="http://www.w3.org/2000/svg" xmlns:xlink="http://www.w3.org/1999/xlink">
    <title>Group 10</title>
    <defs>
        <polygon id="path-1" points="-3.43605309e-15 0 129 0 129 129 -3.43605309e-15 129"></polygon>
        <polygon id="path-3" points="0 0 99 0 99 134 0 134"></polygon>
    </defs>
    <g id="SPRINT-2-DESKTOP" stroke="none" stroke-width="1" fill="none" fill-rule="evenodd">
        <g id="DESKTOP-/-05-REWARDS---Hifi" transform="translate(-500.000000, -2084.000000)">
            <g id="Group-10" transform="translate(500.000000, 2084.000000)">
                <g id="Group-20" transform="translate(10.000000, 6.000000)">
                    <g id="Group-3">
                        <mask id="mask-2" fill="white">
                            <use xlink:href="#path-1"></use>
                        </mask>
                        <g id="Clip-2"></g>
                        <path d="M121.074442,33.5221644 C119.786337,31.1840214 118.357672,28.9260495 116.796133,26.7603294 C106.819633,12.8533752 91.6962037,3.51398177 74.794904,0.827698106 C53.2298515,-2.65810089 31.3661079,5.00538537 16.6951076,21.1900797 C16.0559967,21.896245 15.4322596,22.6155892 14.8271906,23.3503086 C14.523009,23.716021 14.2243179,24.0850281 13.926725,24.4573299 C7.09746229,33.0894597 2.58964374,43.3250131 0.828245207,54.1909537 C0.830441465,54.1953466 0.830441465,54.1986413 0.828245207,54.2008378 C0.750278065,54.691749 0.681095954,55.1826602 0.608619456,55.6735714 C0.589951267,55.8317173 0.56908682,55.9876667 0.549320503,56.1458126 C0.502100966,56.492855 0.459273944,56.8420938 0.417545052,57.1891362 C0.402171249,57.3571662 0.380208674,57.524098 0.363736742,57.6910297 C0.323105978,58.0787068 0.2857696,58.4663839 0.249531351,58.8529627 C0.24184445,58.961688 0.230863163,59.0704133 0.219881875,59.1791386 C0.18034924,59.6711481 0.145209119,60.1631575 0.115559643,60.6551669 C0.107872742,60.7748746 0.101283969,60.893484 0.0990877115,61.0120934 C0.07383075,61.397574 0.0562606899,61.7819564 0.0441812735,62.167437 C0.037592501,62.3113058 0.0342981147,62.4573711 0.0288074709,62.6023382 C0.0189243121,62.9911135 0.00794302448,63.3798888 0.00574676697,63.7686641 C0.00574676697,63.8773894 0.00245238069,63.9850165 0.00245238069,64.0937418 C-0.00633264938,65.1205919 0.00794302448,66.1474419 0.0540644324,67.1731937 C0.0551625611,67.2160249 0.0584569474,67.2566596 0.0595550762,67.2994908 C0.0804195226,67.7882055 0.106774613,68.2747238 0.139718476,68.7623403 C0.139718476,68.7941891 0.139718476,68.8282344 0.145209119,68.8611815 C0.271493927,70.7292798 0.479040262,72.5929852 0.764553739,74.4490029 C0.770044383,74.4808517 0.775535027,74.514897 0.783221928,74.5467459 C0.789810701,74.5873806 0.79969386,74.6258188 0.811773276,74.664257 C5.09667169,101.38652 26.0566553,123.609312 54.1929104,128.162596 C57.6245627,128.718303 61.0946496,128.998353 64.5702271,129.000549 L64.5757178,129.000549 C90.564033,128.965406 113.991512,113.330927 124.002054,89.3454672 C124.048175,89.260903 124.089904,89.1741425 124.12724,89.0851854 C124.729015,87.6223359 125.271491,86.1331288 125.763452,84.6263499 C125.77663,84.5879116 125.787611,84.5472769 125.801887,84.5088387 C125.931466,84.1123757 126.057751,83.7126181 126.178545,83.3139586 C126.223568,83.1733845 126.263101,83.0339086 126.30483,82.8922363 C126.408054,82.5397027 126.512376,82.1882674 126.611208,81.8335374 C126.742983,81.360198 126.869268,80.8868585 126.99116,80.4113226 C127.04387,80.2048544 127.09109,79.9972879 127.141604,79.7908196 C127.229454,79.4382861 127.31401,79.0846543 127.394173,78.7288261 C127.440295,78.527849 127.48422,78.3257737 127.527047,78.1226001 C127.608309,77.7404142 127.687374,77.3571301 127.763145,76.9716495 C127.79499,76.8025213 127.830131,76.633393 127.863074,76.4642648 C127.969593,75.9096559 128.068424,75.3550471 128.158471,74.7982417 C128.754755,71.1158586 129.035876,67.3917426 128.996343,63.6621353 C128.88653,53.114683 126.165367,42.7594219 121.074442,33.5221644 L121.074442,33.5221644 Z M26.5299488,19.5262531 C37.1279895,10.5756351 50.5460248,5.65444246 64.4175872,5.63247775 C67.5922775,5.63577246 70.7614771,5.8916613 73.8955366,6.39904603 C89.3165587,8.85140556 103.116743,17.3726136 112.218034,30.0627231 C112.505744,30.4602843 112.787963,30.8622384 113.065789,31.2652908 C119.645777,40.8254295 123.226775,52.1306642 123.350863,63.7368153 C123.3882,67.1380502 123.132336,70.5381868 122.584369,73.8965905 C122.516285,74.3391794 122.43722,74.7839647 122.355959,75.2254553 C122.326309,75.3792082 122.293365,75.5329612 122.26701,75.6856159 C122.211006,75.9667642 122.156099,76.2490106 122.097898,76.5301589 C122.042992,76.787146 121.985889,77.048526 121.925492,77.3077095 C121.888156,77.4746413 121.85631,77.6437695 121.814581,77.8107013 C121.73332,78.1610384 121.645469,78.5102772 121.556521,78.8595161 C121.538951,78.9265084 121.525773,78.9967955 121.507105,79.0648861 C121.037106,80.9055285 120.479257,82.7143221 119.834655,84.4934634 C118.987998,84.0113381 118.527882,83.0569716 118.680522,82.0949174 L118.791433,81.4216991 C119.465684,77.1440724 116.619334,73.1058611 112.364085,72.3041493 C111.903969,72.2217816 111.436166,72.1789504 110.969462,72.1789504 C107.035964,72.228371 103.704242,75.0947653 103.067327,78.9781255 L102.071324,85.1414223 C101.786909,86.9677876 100.235253,88.3263048 98.3903967,88.3680377 C98.1806541,88.3680377 97.9731077,88.3482695 97.7677577,88.3109295 C95.801009,87.9386277 94.4887452,86.0716276 94.8039081,84.0970004 L95.8361492,77.7063689 C96.3434847,74.4786553 94.8445389,71.2674151 92.0443106,69.5838203 C92.0827451,69.3795485 92.1178852,69.1752768 92.1497309,68.971005 C94.6369926,53.7000425 84.2761477,39.3021771 69.0066673,36.8124775 C53.7349907,34.3249745 39.3396208,44.686825 36.8501629,59.9577875 C36.8468685,59.978654 36.8435741,59.9995204 36.8402797,60.0203869 C36.7699995,60.4618775 36.7085043,60.9022699 36.6579904,61.3426623 C36.6437147,61.4810399 36.6338315,61.6205158 36.620654,61.7588935 C36.5899064,62.0609082 36.561355,62.3629229 36.5404906,62.6660359 C36.5306074,62.8340659 36.5229205,63.0031941 36.5152336,63.1712241 C36.5020561,63.4391935 36.4899767,63.707163 36.484486,63.9762306 C36.4800935,64.16952 36.4800935,64.3617112 36.4800935,64.5560989 C36.4800935,64.790023 36.4822898,65.0250454 36.4888785,65.256773 C36.4943692,65.4830095 36.5031542,65.709246 36.5130374,65.9343843 C36.5240186,66.1232807 36.5349999,66.311079 36.5470793,66.4988772 C36.5690419,66.7690431 36.5888082,67.0370125 36.6162615,67.3060802 C36.6283409,67.431279 36.6437147,67.5575761 36.6568922,67.6838732 C36.6942286,68.0100491 36.7381538,68.3373232 36.7842752,68.6624009 C36.7908639,68.7041338 36.7974527,68.7436703 36.8029433,68.784305 C36.8633404,69.1686874 36.9292282,69.5519715 37.0028028,69.9330592 C35.7465435,71.1070727 34.91526,72.6665669 34.641826,74.3633405 L33.6084868,80.7517756 C33.3592116,82.3694762 31.9854525,83.5731422 30.3503388,83.6093839 C30.1658531,83.6093839 29.9824656,83.5929104 29.8012744,83.5588651 C28.0640347,83.231591 26.9044107,81.579845 27.1833354,79.8347491 L28.1321187,73.9558952 C28.5153656,71.5474651 27.9179836,69.0863197 26.4761405,67.1193802 C25.0848114,65.2029595 22.9742079,63.9333994 20.629703,63.5995359 C15.8297822,62.9153353 11.3669869,66.2078449 10.6048855,70.9972492 L10.2304236,73.3189187 C10.054723,74.4325294 9.02248201,75.2023924 7.90458693,75.0519341 C7.15017247,74.9091635 6.54620165,74.3413758 6.35512725,73.5989687 C6.32108526,73.3914023 6.28923953,73.1827375 6.25739379,72.9740728 C6.20578174,72.6226375 6.16075846,72.270104 6.11353892,71.9164722 C6.05973061,71.4870622 6.01141295,71.0554557 5.96638967,70.622751 C5.92246452,70.2196986 5.88293188,69.8166462 5.84998802,69.4146921 C5.82912358,69.1522138 5.80825913,68.8930303 5.78849281,68.630552 C5.74456766,68.0320138 5.71491818,67.4345737 5.68966122,66.8360355 C5.67867994,66.6339602 5.67648368,66.4329831 5.67099303,66.2309078 C5.65561923,65.709246 5.6468342,65.186486 5.6468342,64.6626277 L5.6468342,64.1772077 C5.65122672,63.5259541 5.66769865,62.8736023 5.69185748,62.2212505 C5.69844625,62.0543188 5.70613315,61.8895835 5.71711444,61.7204552 C5.74456766,61.1010505 5.7841003,60.4816457 5.83131983,59.8611428 C5.83681048,59.7930522 5.84010486,59.7227651 5.84888989,59.6546745 C5.9026982,58.9759651 5.97627283,58.2994521 6.05643623,57.6207427 C6.07620255,57.463695 6.09267448,57.3044509 6.11353892,57.1452068 C6.2002911,56.4599079 6.29363204,55.774609 6.40564117,55.0915067 C8.64911823,41.2131066 15.7880533,28.5965789 26.5299488,19.5262531 L26.5299488,19.5262531 Z M42.9195205,70.4393456 C42.9162261,70.4272651 42.9140299,70.4162827 42.9140299,70.4042021 C42.8053151,70.0187215 42.7141705,69.6343391 42.6285164,69.2466621 C42.6263202,69.2400726 42.625222,69.2334832 42.625222,69.2257956 C42.5450586,68.8666726 42.4769746,68.5075497 42.4165776,68.1473285 C42.4066944,68.0880238 42.3990075,68.0276208 42.3880262,67.9661196 C42.3419048,67.6630067 42.3034703,67.3587955 42.2672321,67.0556825 C42.2551526,66.9513502 42.2441713,66.8459196 42.2320919,66.7415872 C42.2057368,66.4835019 42.1870687,66.2210237 42.1716948,65.9596437 C42.1607136,65.8234625 42.1508304,65.6850848 42.1453398,65.5467072 C42.1354566,65.3149795 42.129966,65.0843501 42.1255734,64.8515242 C42.1255734,64.6944765 42.1200828,64.5352324 42.1200828,64.3759883 C42.1233772,64.155243 42.1321622,63.9333994 42.1420454,63.7126541 C42.1453398,63.5479188 42.1497323,63.38538 42.1585173,63.2217429 C42.172793,62.9812294 42.1958537,62.7418141 42.2178163,62.5002023 C42.2298957,62.35853 42.2386807,62.2146611 42.2540545,62.0729888 C42.2968815,61.6886064 42.3473955,61.3053223 42.4088907,60.9220381 C44.117579,50.0714729 53.4824211,42.0873019 64.4659049,42.117964 C65.6738465,42.117964 66.8784938,42.2168937 68.0710616,42.4090849 C80.2635852,44.3793191 88.5522611,55.8624679 86.5822181,68.0572732 C86.58112,68.0605679 86.58112,68.0649608 86.5789237,68.0682555 C86.5152323,68.4680132 86.436167,68.8677709 86.3494148,69.2675285 C86.3351391,69.3356191 86.3153728,69.4037097 86.3032934,69.4728985 C86.2187375,69.8276286 86.1308872,70.1801621 86.0342519,70.5304992 C83.3690934,80.2059526 74.5599045,86.8975006 64.5252039,86.8701289 C63.3172622,86.8689465 62.112615,86.7723017 60.9211453,86.5790123 C52.2832645,85.1754675 45.2530441,78.8715967 42.9206187,70.4360509 L42.9195205,70.4393456 Z M102.460062,109.467335 C91.8642174,118.416855 78.445084,123.336949 64.5746197,123.358914 L64.569129,123.358914 C61.3955369,123.356718 58.2263373,123.100829 55.0922778,122.593444 C32.5982083,118.930829 14.2320048,102.622034 7.93423641,80.7155338 C8.03306799,80.7199267 8.13519397,80.7287126 8.23292743,80.7287126 C11.9995091,80.6825867 15.1906712,77.9380966 15.7990346,74.22057 L16.1723984,71.8999987 C16.4172811,70.3218345 17.7756663,69.157705 19.3734437,69.1566068 C19.5271817,69.157705 19.6809197,69.1675891 19.8324615,69.1895538 C20.6769225,69.3136544 21.4324351,69.773815 21.9298874,70.4657033 C22.4767556,71.2103069 22.7040682,72.1427087 22.5602133,73.0553422 L21.6092338,78.9341961 C20.8548194,83.7115198 24.0371965,88.2230706 28.7909959,89.1148377 C29.3049202,89.209286 29.8265313,89.2554119 30.3481425,89.2554119 C34.7450501,89.1994019 38.4677065,85.9947511 39.1770977,81.6556233 L39.8118161,77.7415125 C40.3960206,78.8320602 41.0527016,79.8830714 41.771976,80.889055 C46.1062902,86.9293494 52.6763946,90.9851325 60.0184834,92.1525567 C68.0853373,93.4682427 76.3256955,91.1839131 82.5663612,85.9035976 C85.8497662,83.1305533 88.449037,79.6381649 90.1654123,75.6987947 C90.2884027,76.054623 90.3224447,76.4346124 90.2642438,76.8069142 L89.2309047,83.1964475 C88.4435464,88.2033024 91.7785634,92.9290091 96.7596755,93.8658039 C97.2988567,93.964645 97.8435285,94.0129674 98.3914948,94.0129674 C103.000341,93.9547609 106.899796,90.595259 107.64323,86.0463682 L108.641429,79.8808749 C108.852269,78.583859 110.055818,77.6887972 111.358199,77.8623184 C112.596888,78.098439 113.423779,79.2757473 113.22392,80.5211461 L113.113009,81.1954626 C112.561748,84.7306822 114.419782,88.2065971 117.666949,89.7100813 C114.069479,97.3076734 108.884115,104.043151 102.460062,109.465139 L102.460062,109.467335 Z" id="Fill-1" fill="#B3303A" mask="url(#mask-2)"></path>
                    </g>
                    <path d="M62.1719139,17.0629113 C62.4003247,17.047536 85.0239734,15.7571094 98.631985,32.9444926 C99.5994364,34.1679268 101.374012,34.3743951 102.597328,33.4079479 C103.819545,32.4404026 104.027092,30.6634578 103.05964,29.4400236 C87.5683377,9.8749609 62.8296931,11.3597751 61.7853726,11.4311604 C60.2315204,11.5387875 59.0576208,12.885224 59.1630411,14.4403252 C59.2706578,15.9954265 60.6169636,17.1683419 62.1719139,17.0629113" id="Fill-4" fill="#B3303A"></path>
                    <path d="M20.1769445,55.0381324 C20.4635561,55.0381324 20.7479715,54.994203 21.0203074,54.9085406 L24.7726134,53.7334288 C26.2638722,53.2776612 27.1017445,51.699497 26.646021,50.2091916 C26.1902976,48.717788 24.6111884,47.8798344 23.1221258,48.3356021 C23.1100464,48.339995 23.0990651,48.3421915 23.0858876,48.3465844 L19.3346797,49.5216963 C17.8467153,49.9873481 17.0176281,51.5710034 17.4832347,53.0580141 C17.8522059,54.2364206 18.9437459,55.0381324 20.1769445,55.0381324" id="Fill-6" fill="#B3303A"></path>
                    <path d="M32.4697273,36.1880209 C32.5927177,37.6475757 33.8127387,38.7699722 35.2776425,38.7721687 C35.3556096,38.7721687 35.4390674,38.7677757 35.5181327,38.7611863 C37.0697886,38.6304963 38.2217257,37.2675863 38.0932446,35.7168779 C38.0932446,35.7135832 38.0910484,35.712485 38.0910484,35.7102885 L37.7868667,32.0970942 C37.6759557,30.541993 36.3241592,29.3723723 34.770307,29.4832941 C33.2153567,29.5942159 32.0447514,30.9439471 32.1556624,32.5001466 C32.1589568,32.5243078 32.160055,32.548469 32.1622512,32.5748266 L32.4697273,36.1880209 Z" id="Fill-8" fill="#B3303A"></path>
                    <path d="M102.664643,55.3039054 L100.138947,55.7860307 C98.6081556,56.0748666 97.6022696,57.5519931 97.8910775,59.0829332 C98.1436471,60.4161909 99.3076636,61.3804416 100.664951,61.3804416 C100.842848,61.3804416 101.020744,61.363968 101.196445,61.331021 L103.722141,60.8488956 C105.255129,60.5633545 106.266506,59.0906209 105.980992,57.5585825 C105.696577,56.0265442 104.223986,55.0139712 102.692096,55.2984142 C102.682213,55.3017089 102.673428,55.3028071 102.664643,55.3039054" id="Fill-10" fill="#B3303A"></path>
                    <path d="M102.02674,40.8688098 L101.963049,42.6402634 C101.907044,44.1975611 103.123771,45.5055594 104.680917,45.5626677 L104.684212,45.5626677 L104.783043,45.5626677 C106.302854,45.5626677 107.54923,44.3590017 107.603038,42.8412405 L107.667828,41.0708851 C107.706262,39.5124891 106.474162,38.2165714 104.915917,38.1781332 C103.381831,38.1407932 102.099217,39.334575 102.02674,40.8677115 L102.02674,40.8688098 Z" id="Fill-12" fill="#B3303A"></path>
                    <path d="M75.0021209,24.8323772 C73.4954883,24.4337178 71.9515192,25.3287796 71.5507022,26.8344603 L70.9818715,28.9694298 C70.5612882,30.4696193 71.4364968,32.0280152 72.9376388,32.4497376 C74.4387809,32.87146 75.9970256,31.9961664 76.4176089,30.4948787 C76.4241977,30.4696193 76.4307864,30.4454581 76.4373752,30.4201987 L77.0040096,28.2852292 C77.4048266,26.7795485 76.5087536,25.2332331 75.0021209,24.8323772" id="Fill-14" fill="#B3303A"></path>
                    <path d="M52.6342264,27.5551223 L54.1891767,27.5836793 L54.2440832,27.5836793 C55.8012298,27.5858729 57.0662741,26.3240005 57.0684769,24.7656045 C57.0717647,23.2236821 55.8352717,21.9651044 54.2924008,21.9409432 L52.7374505,21.9112908 C51.1792058,21.8937191 49.9020821,23.1446091 49.8856101,24.7030051 C49.8680401,26.2449275 51.0935518,27.5155858 52.6342264,27.5551223" id="Fill-16" fill="#B3303A"></path>
                    <path d="M90.5220845,35.7078724 C89.7446093,34.3581412 88.0183509,33.8935876 86.6687507,34.6733347 C85.3191504,35.4508853 84.8568382,37.1762131 85.6343134,38.5259443 C85.6452947,38.5446143 85.6562759,38.5643826 85.6672572,38.5819543 L86.5413677,40.0601791 C87.3342167,41.4022227 89.0648676,41.8459098 90.4056828,41.0518856 C91.7475962,40.2578615 92.1912402,38.5270425 91.3983912,37.1860972 L90.5220845,35.7078724 Z" id="Fill-18" fill="#B3303A"></path>
                </g>
                <g id="Group-7" transform="translate(180.000000, 0.000000)">
                    <path d="M95.3041115,53.1618893 C94.6578883,52.4792164 93.7620131,52.0847345 92.8186377,52.0661062 L90.8843868,52.0661062 L93.0936968,33.4334104 L96.9621987,33.4334104 C98.6335417,33.4180694 99.9856395,32.0779267 100,30.4189111 L100,24.6638582 C100,20.5535758 96.9621987,16.9900892 93.0936968,15.8943061 L91.7128781,10.413199 C91.4367143,9.04347016 90.0558955,8.22053705 88.6739721,8.22053705 L81.767669,8.22053705 L78.1764355,1.64474268 C77.6484104,0.616898134 76.576895,-0.020847629 75.414798,0.000520719768 L61.6021916,0.000520719768 C60.4400946,-0.020847629 59.3685792,0.616898134 58.8394494,1.64474268 L55.2493206,8.22053705 L11.3260279,8.22053705 C9.94410446,7.94659128 8.56328569,9.04347016 8.28601728,10.413199 L6.90519851,15.8943061 C3.03780129,16.7172392 0,20.2785343 0,24.6638582 L0,30.4178153 C0.0143605152,32.0768309 1.3653536,33.4180694 3.03780129,33.4334104 L6.90519851,33.4334104 L9.11561319,52.067202 L7.18136226,52.067202 C6.30205687,52.0233706 5.46362371,52.4386724 4.97094757,53.1629851 C4.41862006,53.7108766 4.14356097,54.8066597 4.14356097,55.628497 L9.39177695,99.7458203 C9.6679407,101.389495 10.7737004,102.486374 12.4295782,102.486374 L15.1923204,102.486374 L18.7846586,131.259446 C19.0597177,132.903121 20.1654773,134 21.8224598,134 L78.4525993,134 C80.1095818,134 81.2153414,132.904217 81.4926099,131.259446 L85.0827387,102.486374 L87.8454809,102.486374 C89.5024634,102.486374 90.6082231,101.390591 90.8843868,99.7458203 L96.1326028,55.6274012 C96.1326028,54.5316181 95.856439,53.7097808 95.3041115,53.1618893 L95.3041115,53.1618893 Z M6.07670724,24.6638582 C6.09106776,23.0048426 7.44427015,21.6636041 9.11561319,21.6482631 L9.39177695,21.6482631 C10.7737004,21.6482631 11.8783554,20.8275216 12.4295782,19.4556012 L13.8115017,14.2495357 L57.7347944,14.2495357 C58.8968915,14.2714513 59.9695115,13.6337056 60.4975366,12.605861 L63.5353379,6.03006664 L73.7567108,6.03006664 L77.3490489,12.605861 C77.8759693,13.6326098 78.949694,14.2703555 80.1106864,14.2495357 L86.4635574,14.2495357 L87.8454809,19.1805596 C88.1216446,20.5502885 89.5024634,21.3721258 90.8843868,21.3721258 L91.1605506,21.3721258 C92.7236374,21.724968 93.8548041,23.0716854 93.9232928,24.6594751 L93.9232928,27.4000286 L6.07670724,27.4000286 L6.07670724,24.6638582 Z M12.9841151,33.4334104 L87.0180942,33.4334104 L84.8076796,52.067202 L15.1923204,52.067202 L12.9841151,33.4334104 Z M75.6920664,127.697056 L24.3090383,127.697056 L21.2701323,102.486374 L78.7298677,102.486374 L75.6920664,127.697056 Z M84.8076796,96.1845253 L15.1923204,96.1845253 L10.496432,58.0951048 L89.5024634,58.0951048 L84.8076796,96.1845253 Z" id="Fill-1" fill="#2471AD"></path>
                    <path d="M49.0074675,43.1162977 C67.8363122,43.1162977 83.0993306,58.2567328 83.0993306,76.9343557 C83.0993306,95.6119786 67.8363122,110.753509 49.0074675,110.753509 C30.1786227,110.753509 14.9156044,95.6119786 14.9156044,76.9343557 C14.9156044,58.2567328 30.1786227,43.1162977 49.0074675,43.1162977" id="Fill-3" fill="#FEFEFE"></path>
                    <path d="M48.9066125,46.5342633 C32.0363211,46.5298812 18.357378,60.0934844 18.3518536,76.8271881 C18.3474361,93.5619876 32.0208559,107.13107 48.8911473,107.136549 C65.7614387,107.139836 79.4403818,93.5773285 79.4448004,76.8436249 L79.4448004,76.8348586 C79.445905,60.1033465 65.7746946,46.5386475 48.9066125,46.5342633 L48.9066125,46.5342633 Z M65.3626582,91.1983834 C68.136447,91.1983834 69.7161037,90.796231 71.8801228,89.5634751 L71.8801228,95.4160526 C69.6807547,96.4592381 67.284758,97.0323327 64.8467843,97.0969839 C57.6422243,97.0969839 54.0012814,92.6623497 54.0012814,86.7100559 L54.0012814,69.2684763 L28.6284603,69.2684763 L44.6006672,53.4081117 L44.6006672,69.2684763 L60.5806067,53.4081117 L60.5806067,63.2066042 L71.8801228,63.2066042 L71.8801228,69.2684763 L60.5806067,69.2684763 L60.5806067,86.1906547 C60.5806067,90.0982172 63.4328259,91.1983834 65.3637629,91.1983834 L65.3626582,91.1983834 Z" id="Fill-5" fill="#2471AD"></path>
                </g>
                <g id="Group-6" transform="translate(326.000000, 0.000000)">
                    <g id="Group-3">
                        <mask id="mask-4" fill="white">
                            <use xlink:href="#path-3"></use>
                        </mask>
                        <g id="Clip-2"></g>
                        <path d="M94.3511328,53.1618196 C93.7118037,52.4793984 92.8242128,52.0831539 91.8893862,52.065543 L89.975793,52.065543 L92.1629136,33.4321431 L95.9922972,33.4321431 C97.6477421,33.4178343 98.9857195,32.0772069 99,30.4162818 L99,24.6630311 C99,20.5530946 95.9922972,16.9901957 92.1629136,15.8950198 L90.7963752,10.4136369 C90.5239463,9.04439187 89.1552108,8.22218444 87.7875738,8.22218444 L80.9504874,8.22218444 L77.3946313,1.64452494 C76.8717436,0.617591155 75.8094906,-0.0208028388 74.6593574,-0.000388528255 L60.9862831,-0.000388528255 C59.8350514,-0.0208028388 58.7738969,0.617591155 58.2510092,1.64452494 L54.6962516,8.22218444 L11.2119868,8.22218444 C9.84544831,7.94811529 8.47671283,9.04439187 8.20318544,10.4136369 L6.83664697,15.8939192 C3.00836194,16.7172273 -0.000439401437,20.2790255 -0.000439401437,24.6630311 L-0.000439401437,30.4184832 C0.0138411453,32.0772069 1.35291703,33.4178343 3.00836194,33.4321431 L6.83664697,33.4321431 L9.02486613,52.0666437 L7.11017436,52.0666437 C6.24015952,52.0226165 5.4085923,52.4375726 4.9219552,53.1618196 C4.37490041,53.7110585 4.10137302,54.8062344 4.10137302,55.6284419 L9.29839352,99.7458696 C9.57082241,101.390284 10.6660305,102.486561 12.3071949,102.486561 L15.0424688,102.486561 L18.5983249,131.259419 C18.8707538,132.903833 19.9659619,134.00011 21.6071263,134.00011 L77.6670602,134.00011 C79.3082246,134.00011 80.4023342,132.903833 80.6758615,131.259419 L84.2317177,102.486561 L86.9658931,102.486561 C88.6070575,102.486561 89.7022656,101.390284 89.975793,99.7458696 L95.171715,55.6284419 C95.171715,54.5321653 94.8981876,53.7099579 94.3511328,53.1618196 L94.3511328,53.1618196 Z M6.01606478,24.6630311 C6.03034533,23.0043074 7.36942121,21.6625794 9.02596463,21.6482705 L9.29839352,21.6482705 C10.6660305,21.6482705 11.7601401,20.8260631 12.3071949,19.4568181 L13.6748318,14.250605 L57.1579981,14.250605 C58.3081314,14.2715179 59.3703843,13.6331239 59.8921736,12.6061901 L62.8998764,6.02853059 L73.0192915,6.02853059 L76.5751476,12.6061901 C77.0980353,13.6331239 78.1602883,14.2715179 79.3104216,14.250605 L85.6004532,14.250605 L86.9669916,19.1827489 C87.240519,20.551994 88.608156,21.3742014 89.975793,21.3742014 L90.2493204,21.3742014 C91.7960134,21.7275194 92.9164871,23.0747509 92.9834958,24.6630311 L92.9834958,27.4026219 L6.01606478,27.4026219 L6.01606478,24.6630311 Z M12.8531512,33.4321431 L86.1464094,33.4321431 L83.9592888,52.065543 L15.0424688,52.065543 L12.8531512,33.4321431 Z M74.9328848,127.69762 L24.0655773,127.69762 L21.0578745,102.48546 L77.9427846,102.48546 L74.9328848,127.69762 Z M83.9592888,96.1840714 L15.0424688,96.1840714 L10.3914046,58.0950642 L88.608156,58.0950642 L83.9592888,96.1840714 Z" id="Fill-1" fill="#4E3523" mask="url(#mask-4)"></path>
                    </g>
                    <path d="M49.0797125,105.958654 C48.1295069,105.979567 47.1913848,105.752827 46.3554236,105.30375 L25.4025661,93.1830693 C23.7921598,92.1341219 22.7793395,90.376337 22.6771786,88.4534503 L22.6771786,64.2120894 C22.7793395,62.2903033 23.7910613,60.5347199 25.4003691,59.4846718 L46.3554236,47.36179 C48.0679907,46.490052 50.0914343,46.490052 51.8040014,47.36179 L72.7579575,59.4835711 C74.3672653,60.5336192 75.3789871,62.2892027 75.4822464,64.2109887 L75.4822464,88.4523496 C75.3789871,90.3741357 74.3672653,92.1319205 72.7579575,93.1819686 L51.8061984,105.30485 C50.9691387,105.753928 50.0299181,105.979567 49.0797125,105.958654 L49.0797125,105.958654 Z M32.123211,88.7418283 C30.9609942,88.7407276 29.9481739,89.5398208 29.6768435,90.6724198 L68.4606114,90.6724198 C68.1881825,89.5398208 67.1764607,88.7407276 66.0142439,88.7418283 L63.9633377,88.7418283 L66.1603449,82.8113682 C66.4130007,82.1168396 66.0570856,81.3496661 65.3650283,81.0954092 C65.3628313,81.0954092 65.3617328,81.0943085 65.3606343,81.0943085 L64.6542965,80.7398898 L64.6542965,77.0691243 L66.5656927,77.0691243 L66.5876628,74.2910098 C66.5964508,73.2618746 65.7385195,72.1204702 64.5916818,71.637272 C64.520279,71.5998489 64.4455808,71.5668285 64.3686855,71.5404122 L53.2287606,67.4723015 L51.1251262,73.2662773 L53.9219164,80.9644283 L54.6469287,81.2318934 C55.2038701,81.4333177 55.8190321,81.1471411 56.0200582,80.5890967 L56.0211567,80.587996 L56.091461,80.4052833 L58.4982823,82.8487913 L56.3660869,88.7418283 L46.8069086,88.7418283 L48.1020443,85.1701239 L45.7281781,84.30499 L44.1188703,88.7418283 L41.9009915,88.7418283 L43.7695462,83.5906492 L41.3978769,82.7244145 L39.2129532,88.7418283 L32.123211,88.7418283 Z M33.318383,68.5916923 C32.6263257,68.5971957 31.8584717,69.2388918 31.6058159,70.0225754 L29.9668485,74.2227676 C29.8580966,74.5661796 29.8580966,74.9349071 29.9668485,75.2794198 L31.6058159,81.3100416 C31.8595702,82.0992287 32.6285227,82.7409247 33.318383,82.7409247 L35.6164525,82.7431261 L36.8061319,86.0715803 C36.9247703,86.3852739 37.2751929,86.5437717 37.5893649,86.4237977 C37.7519435,86.3621596 37.8804684,86.2344808 37.9419846,86.0715803 L39.9203896,80.5505729 L49.0643335,83.8680203 C49.2071389,83.8944366 49.3521414,83.9087455 49.4982424,83.9087455 C50.4561375,83.9076448 51.3118718,83.3066739 51.6392259,82.4052175 L52.2104478,80.8543604 L49.4773708,73.2651766 L52.2324178,65.6286637 C52.4477245,64.5235816 51.8259715,63.4273051 50.7681125,63.04647 L46.2961044,61.3866456 C43.1346111,60.2331337 39.6391726,61.8654411 38.4879409,65.0331962 C38.4857439,65.0342968 38.4857439,65.0353975 38.4857439,65.0364982 L37.2136767,68.5883903 L33.318383,68.5916923 Z M61.2752994,88.7440296 L59.0541252,88.7440296 L60.7315401,84.1002637 L62.9505174,84.1002637 L61.2752994,88.7407276 L61.2752994,88.7440296 Z M33.9049839,78.3492165 C33.3864902,78.350315 32.9624678,77.9298555 32.9613607,77.4081335 C32.9591723,76.8864115 33.3798992,76.46265 33.9005899,76.4615407 C34.4201821,76.459348 34.8431059,76.8809081 34.845303,77.4015295 L34.845303,77.4037308 C34.845303,77.9243521 34.4245761,78.347013 33.9049839,78.3492165 L33.9049839,78.3492165 Z M34.7530287,74.8765711 L33.032772,74.8765711 L33.032772,71.1144493 C34.0708579,71.668091 34.7870823,72.714837 34.7793927,73.6581192 L34.7552257,74.8743698 L34.7530287,74.8765711 Z" id="Fill-4" fill="#4E3523"></path>
                </g>
                <text id="0" font-family="GillSansNova-Medium, Gill Sans Nova" font-size="21" font-weight="400" letter-spacing="-0.403846154" fill="#005DA9">
                    <tspan x="0" y="188">0</tspan>
                </text>
                <text id="500" font-family="GillSansNova-Medium, Gill Sans Nova" font-size="21" font-weight="400" letter-spacing="-0.403846154" fill="#005DA9">
                    <tspan x="82" y="188">500</tspan>
                </text>
                <text id="1000" font-family="GillSansNova-Medium, Gill Sans Nova" font-size="21" font-weight="400" letter-spacing="-0.403846154" fill="#005DA9">
                    <tspan x="172" y="188">1000</tspan>
                </text>
                <text id="1500" font-family="GillSansNova-Medium, Gill Sans Nova" font-size="21" font-weight="400" letter-spacing="-0.403846154" fill="#005DA9">
                    <tspan x="278" y="188">1500</tspan>
                </text>
                <text id="2000" font-family="GillSansNova-Medium, Gill Sans Nova" font-size="21" font-weight="400" letter-spacing="-0.403846154" fill="#005DA9">
                    <tspan x="395" y="188">2000</tspan>
                </text>
                <rect id="Rectangle" stroke="#005DA9" fill="#FFFFFF" x="5.5" y="152.516509" width="422" height="12.9669811" rx="5"></rect>
                <path d="M261.5,152.516509 L261.5,165.483491 L11.9834906,165.483491 C10.1931241,165.483491 8.57225144,164.757801 7.39897042,163.58452 C6.2256894,162.411239 5.5,160.790366 5.5,159 C5.5,157.209634 6.2256894,155.588761 7.39897042,154.41548 C8.57225144,153.242199 10.1931241,152.516509 11.9834906,152.516509 L11.9834906,152.516509 L261.5,152.516509 Z" id="Rectangle" stroke="#005DA9" fill="#005DA9"></path>
            </g>
        </g>
    </g>
</svg>