<?xml version="1.0" encoding="UTF-8"?>
<svg width="43px" height="43px" viewBox="0 0 43 43" version="1.1" xmlns="http://www.w3.org/2000/svg" xmlns:xlink="http://www.w3.org/1999/xlink">
    <title>icons/fontawesome/regular/check</title>
    <g id="SPRINT-2-DESKTOP" stroke="none" stroke-width="1" fill="none" fill-rule="evenodd">
        <g id="DESKTOP-/-05-REWARDS---Hifi" transform="translate(-1177.000000, -2369.000000)" fill="#FFFFFF">
            <g id="icons/fontawesome/regular/check" transform="translate(1157.000000, 2349.000000)">
                <path d="M41.7999023,27.720703 L45.8250782,29.3928612 L47.4964258,33.4188476 C47.5876124,33.6012206 47.7799551,33.7193173 47.9825919,33.7193173 C48.1852286,33.7193173 48.3778145,33.6012206 48.469001,33.4188476 L50.1403487,29.3928612 L54.1622824,27.720703 C54.3547872,27.6295165 54.4660753,27.4368495 54.4660753,27.2342127 C54.4660753,27.031576 54.3547062,26.8391522 54.1622824,26.7479657 L50.1404298,25.0766991 L48.4690821,21.0539549 C48.381543,20.86145 48.1870118,20.7499998 47.9843751,20.7499998 C47.7817383,20.7499998 47.5894766,20.86145 47.4982901,21.0539549 L45.8269424,25.0766991 L41.8017666,26.7488573 C41.6193936,26.8400438 41.5008916,27.0324676 41.5008916,27.2351043 C41.5008916,27.4377411 41.621582,27.6299217 41.7999023,27.720703 Z M62.0068361,38.5252929 L58.7954494,37.1773535 L57.4483205,33.9651562 C57.3773976,33.8131786 57.225339,33.7217489 57.0632296,33.7217489 C56.9740695,33.7217489 56.7492238,33.8131786 56.6783009,33.9651562 L55.331172,37.1773535 L52.1181642,38.5252929 C51.9661866,38.5962158 51.874838,38.7478691 51.874838,38.9099785 C51.874838,39.0720879 51.9661866,39.2243896 52.1181642,39.2953125 L55.3295509,40.6432519 L56.6766798,43.8554492 C56.7476027,44.0074268 56.8994992,44.098208 57.0616086,44.098208 C57.1507687,44.098208 57.3757765,44.0074268 57.4466994,43.8554492 L58.7938283,40.6432519 L62.005215,39.2953125 C62.1608401,39.2223633 62.2500002,39.0683594 62.2500002,38.90625 C62.2500002,38.7441406 62.1608401,38.5901367 62.0068361,38.5252929 Z M50.2701173,42.4078125 L41.7755859,41.1692969 L37.9822265,33.4512695 C37.6661132,32.8109374 37.0176757,32.405664 36.3043945,32.4136501 C35.5992187,32.405664 34.9426757,32.8109374 34.6427734,33.4512695 L30.8413085,41.102832 L22.3475877,42.4078125 C20.8276016,42.5618164 20.2035291,44.5152344 21.31795,45.5932618 L27.4675692,51.5913087 L26.081534,60.0696291 C25.7956541,61.2043947 26.7593944,62.2500002 27.8439061,62.2500002 C28.1478612,62.2500002 28.4466288,62.1826924 28.7103807,62.0307473 L36.3124999,58.0282668 L43.9105664,62.0307473 C44.5387403,62.3650979 45.3087598,62.3051985 45.8761426,61.8897932 C46.4536573,61.4743879 46.7369434,60.772049 46.6152803,60.0733576 L45.1636719,51.5913087 L51.3173438,45.5932618 C52.409961,44.5233399 51.8020509,42.5618164 50.2701173,42.4078125 Z M40.9731445,50.2376954 L42.0771094,56.6815431 L36.3124999,53.6419923 L30.5276268,56.6815431 L31.6421288,50.2376954 L26.9620311,45.6743164 L33.4261425,44.732461 L36.3124999,38.890039 L39.1980469,44.7340821 L45.6621582,45.6759375 L40.9731445,50.2376954 Z" id="icons/fontawesome/regular/stars"></path>
            </g>
        </g>
    </g>
</svg>