<svg version="1.1" id="Layer_1" xmlns="http://www.w3.org/2000/svg" xmlns:xlink="http://www.w3.org/1999/xlink" x="0px" y="0px"
	 width="510px" height="510px" viewBox="0 0 510 510" style="enable-background:new 0 0 510 510;" xml:space="preserve">
<style type="text/css">
	.st0{fill:#00994E;}
	.st1{fill:#CA5D2D;}
	.st2{fill:#002656;}
</style>
<g id="Layer_2_00000165953470998684094360000004191149127945799044_">
	<g id="Layer_1-2">
		<circle class="st0" cx="229.5" cy="316.7" r="190.4"/>
	</g>
</g>
<g id="Layer_2_00000066504120555775787070000004044519630217941896_">
	<g id="Layer_1-2_00000178205953157554171720000007303436763404333742_">
		<path class="st1" d="M117.1,217.6c-50.3,0-91-40.7-91-91s40.7-91,91-91s91,40.7,91,91C208.1,176.8,167.4,217.5,117.1,217.6z
			 M117.1,38.6c-48.6,0-88,39.4-88,88s39.4,88,88,88s88-39.4,88-88C205.1,78.1,165.7,38.7,117.1,38.6z"/>
	</g>
</g>
<g id="Layer_2_00000168106798159771207640000014234539414568181416_">
	<g id="Layer_1-2_00000088849126209686564330000001799541949751178687_">
		<path class="st2" d="M222,245.2l95.5,52.3c2.8,0.4,5.6,0.6,8.4,0.8l-109.2-59.8C218.5,240.7,220.2,242.9,222,245.2z"/>
		<path class="st2" d="M205.7,220.9l141.1,77.3c2-0.1,4-0.3,6-0.6l-149.8-82C203.8,217.4,204.7,219.2,205.7,220.9z"/>
		<path class="st2" d="M195.5,197.6l176.3,96.6c1.6-0.4,3.1-0.8,4.7-1.2L194.1,193C194.6,194.6,195,196.1,195.5,197.6z"/>
		<path class="st2" d="M190.5,178.2L391,288c1.3-0.5,2.6-1.1,3.9-1.6L189.8,174C190,175.4,190.2,176.8,190.5,178.2z"/>
		<path class="st2" d="M188.3,160.8l218.6,119.7c1.1-0.6,2.3-1.3,3.4-1.9L188,156.8C188.1,158.1,188.2,159.5,188.3,160.8z"/>
		<path class="st2" d="M188,145l232.3,127.2c1-0.7,2-1.4,3-2.2L188.2,141.3C188.1,142.5,188.1,143.8,188,145z"/>
		<path class="st2" d="M189.6,128.1l244,133.6c0.9-0.8,1.8-1.6,2.6-2.4L190.2,124.6C190,125.8,189.8,126.9,189.6,128.1z"/>
		<path class="st2" d="M192.4,114.4L443.7,252c0.8-0.8,1.6-1.7,2.3-2.5L193.3,111C193,112.2,192.7,113.3,192.4,114.4z"/>
		<path class="st2" d="M196.7,100.1l256.6,140.5c0.7-0.9,1.4-1.8,2-2.7l-257.4-141C197.5,98,197.1,99.1,196.7,100.1z"/>
		<path class="st2" d="M201.9,87.7L461,229.6c0.6-0.9,1.2-1.9,1.8-2.9L203.4,84.7C202.9,85.7,202.4,86.7,201.9,87.7z"/>
		<path class="st2" d="M208.1,75.9L467.7,218c0.5-1,1-2,1.5-3L209.9,73C209.3,73.9,208.7,74.9,208.1,75.9z"/>
		<path class="st2" d="M216.7,62.8l257.3,140.9c0.4-1.1,0.8-2.1,1.2-3.2L218.8,60.1C218.1,61,217.4,61.9,216.7,62.8z"/>
		<path class="st2" d="M226.1,51.3l252.6,138.3c0.3-1.1,0.6-2.2,0.9-3.3L228.5,48.8C227.7,49.6,226.9,50.5,226.1,51.3z"/>
		<path class="st2" d="M235.9,41.5L481.7,176c0.2-1.2,0.4-2.3,0.6-3.5L238.6,39.1C237.7,39.9,236.8,40.7,235.9,41.5z"/>
		<path class="st2" d="M253.1,27.9c-1,0.7-2,1.4-3.1,2.1l233.7,128c0.1-1.2,0.1-2.5,0.1-3.8L253.1,27.9z"/>
		<path class="st2" d="M483.3,137.4L267.6,19.3c-1.2,0.6-2.4,1.2-3.5,1.9l219.5,120.2C483.5,140,483.4,138.7,483.3,137.4z"/>
		<path class="st2" d="M481.2,122.3L281.5,12.9c-1.3,0.5-2.6,1.1-4,1.6l204.5,112C481.7,125.1,481.5,123.7,481.2,122.3z"/>
		<path class="st2" d="M476,102.9l-175.4-96c-1.6,0.4-3.2,0.8-4.7,1.2l181.6,99.4C477,105.9,476.6,104.4,476,102.9z"/>
		<path class="st2" d="M465.7,79.4L326,2.9c-2,0.1-4,0.3-6,0.5l148.5,81.3C467.6,83,466.7,81.2,465.7,79.4z"/>
		<path class="st2" d="M448.9,54.9l-93.2-51c-2.8-0.4-5.7-0.7-8.6-0.9l107.3,58.8C452.5,59.4,450.7,57.2,448.9,54.9z"/>
	</g>
</g>
</svg>
